HIERARCHY
ROOT joint_Root
{
	OFFSET 0.0 0.0 0.0
	CHANNELS 6 Xposition Yposition Zposition Zrotation Xrotation Yrotation 
	JOINT Hips
	{
		OFFSET 4.5925 91.4895 -427.239
		CHANNELS 6 Xposition Yposition Zposition Zrotation Xrotation Yrotation 
		JOINT Spine
		{
			OFFSET 15.7357 0.0 0.0
			CHANNELS 6 Xposition Yposition Zposition Zrotation Xrotation Yrotation 
			JOINT Chest
			{
				OFFSET 8.98455 -0.406207 0.0
				CHANNELS 6 Xposition Yposition Zposition Zrotation Xrotation Yrotation 
				JOINT Neck
				{
					OFFSET 16.3773 0.0 0.0
					CHANNELS 6 Xposition Yposition Zposition Zrotation Xrotation Yrotation 
					JOINT Head
					{
						OFFSET 6.45672 0.0 0.0
						CHANNELS 6 Xposition Yposition Zposition Zrotation Xrotation Yrotation 
						End Site
						{
							OFFSET 0.0 0.0 0.0
						}
					}
				}
				JOINT Shoulder_L
				{
					OFFSET 12.9942 -0.242716 4.98039
					CHANNELS 6 Xposition Yposition Zposition Zrotation Xrotation Yrotation 
					JOINT UpperArm_L
					{
						OFFSET 5.34809 0.0 0.0
						CHANNELS 6 Xposition Yposition Zposition Zrotation Xrotation Yrotation 
						JOINT LowerArm_L
						{
							OFFSET 24.3286 1.87007e-05 0.0
							CHANNELS 6 Xposition Yposition Zposition Zrotation Xrotation Yrotation 
							JOINT Hand_L
							{
								OFFSET 22.2916 0.0 0.0
								CHANNELS 6 Xposition Yposition Zposition Zrotation Xrotation Yrotation 
								End Site
								{
									OFFSET 0.0 0.0 0.0
								}
							}
						}
					}
				}
				JOINT Shoulder_R
				{
					OFFSET 12.9945 -0.242716 -4.98039
					CHANNELS 6 Xposition Yposition Zposition Zrotation Xrotation Yrotation 
					JOINT UpperArm_R
					{
						OFFSET -5.34813 0.0 0.0
						CHANNELS 6 Xposition Yposition Zposition Zrotation Xrotation Yrotation 
						JOINT LowerArm_R
						{
							OFFSET -24.3289 0.000322201 0.0
							CHANNELS 6 Xposition Yposition Zposition Zrotation Xrotation Yrotation 
							JOINT Hand_R
							{
								OFFSET -22.2915 -0.000108084 0.0
								CHANNELS 6 Xposition Yposition Zposition Zrotation Xrotation Yrotation 
								End Site
								{
									OFFSET 0.0 0.0 0.0
								}
							}
						}
					}
				}
			}
		}
		JOINT UpperLeg_L
		{
			OFFSET -2.19248 -6.46944 0.0
			CHANNELS 6 Xposition Yposition Zposition Zrotation Xrotation Yrotation 
			JOINT LowerLeg_L
			{
				OFFSET 39.0811 0.0 -1.23785e-05
				CHANNELS 6 Xposition Yposition Zposition Zrotation Xrotation Yrotation 
				JOINT Foot_L
				{
					OFFSET 40.9854 0.0 -1.26872e-05
					CHANNELS 6 Xposition Yposition Zposition Zrotation Xrotation Yrotation 
					JOINT Toes_L
					{
						OFFSET 11.7543 0.0 0.0
						CHANNELS 6 Xposition Yposition Zposition Zrotation Xrotation Yrotation 
						End Site
						{
							OFFSET 0.0 0.0 0.0
						}
					}
				}
			}
		}
		JOINT UpperLeg_R
		{
			OFFSET -2.19251 6.46944 0.0
			CHANNELS 6 Xposition Yposition Zposition Zrotation Xrotation Yrotation 
			JOINT LowerLeg_R
			{
				OFFSET -39.0811 -0.00228153 -0.0401928
				CHANNELS 6 Xposition Yposition Zposition Zrotation Xrotation Yrotation 
				JOINT Foot_R
				{
					OFFSET -40.9854 0.0 0.0
					CHANNELS 6 Xposition Yposition Zposition Zrotation Xrotation Yrotation 
					JOINT Toes_R
					{
						OFFSET -11.7543 0.0 0.0
						CHANNELS 6 Xposition Yposition Zposition Zrotation Xrotation Yrotation 
						End Site
						{
							OFFSET 0.0 0.0 0.0
						}
					}
				}
			}
		}
	}
}
MOTION
Frames:	4
Frame Time:	0.0333333
0.000000 0.000000 0.000000 0.000000 0.000000 -0.000000 -1.608370 89.930300 -515.306000 89.026700 -0.739451 -2.974090 15.735700 0.000005 -0.000001 73.131800 82.992200 -72.842800 8.984550 -0.406207 -0.000000 5.668090 -4.062330 0.778671 16.377300 -0.000001 -0.000001 -2.908080 -0.923771 -0.385727 6.456720 -0.000001 -0.000000 -3.866700 1.296710 1.590850 12.994200 -0.242716 4.980390 -89.801300 -0.897194 -77.508000 5.348090 -0.000007 -0.000001 -62.696400 10.338200 -39.424600 24.328600 0.000019 0.000005 2.486310 -0.070967 -91.624300 22.291600 -0.000001 0.000005 21.201900 5.508370 -6.875490 12.994500 -0.242716 -4.980390 88.965600 7.563080 -82.189200 -5.348130 -0.000001 -0.000004 -65.484500 25.229900 3.318600 -24.328900 0.000322 -0.000009 -20.631100 -2.615080 -83.085900 -22.291500 -0.000108 -0.000004 26.401000 5.661240 -16.193500 -2.192480 -6.469440 -0.000000 -175.559000 -6.699490 -8.712410 39.081100 -0.000007 -0.000012 0.063421 -0.052582 50.336500 40.985400 -0.000006 -0.000013 1.197210 4.712950 -55.277200 11.754300 -0.000000 0.000003 -0.130778 -0.515290 -38.259200 -2.192510 6.469440 -0.000001 -172.056000 21.634400 150.636000 -39.081100 -0.002282 -0.040193 0.020995 -0.024490 35.865700 -40.985400 0.000008 0.000006 4.749170 4.103280 -65.935300 -11.754300 -0.000006 -0.000006 -0.017118 -0.150765 -22.727900
0.000000 0.000000 0.000000 0.000000 0.000000 -0.000000 -2.152980 88.934700 -511.151000 89.628000 -0.364612 -1.143970 15.735700 0.000005 -0.000001 77.447600 82.811800 -77.210800 8.984550 -0.406207 -0.000000 6.280410 -3.118560 0.644393 16.377300 -0.000001 -0.000001 -1.987830 -1.396710 -0.403985 6.456720 -0.000001 -0.000000 -3.308650 0.481856 1.567280 12.994200 -0.242716 4.980390 -89.967500 -0.141132 -77.006700 5.348090 -0.000007 -0.000001 -59.811600 16.266500 -34.560400 24.328600 0.000019 0.000005 2.141500 0.194350 -84.835500 22.291600 -0.000001 0.000005 19.536100 5.516950 -7.238850 12.994500 -0.242716 -4.980390 88.834900 8.272640 -81.954400 -5.348130 -0.000001 -0.000004 -60.791100 23.144600 -5.318630 -24.328900 0.000322 -0.000009 -23.321000 0.191965 -90.441900 -22.291500 -0.000108 -0.000004 26.176500 5.653240 -15.343300 -2.192480 -6.469440 -0.000000 -174.983000 -4.984770 -12.012900 39.081100 -0.000007 -0.000012 0.086142 -0.049116 60.307200 40.985400 -0.000006 -0.000013 1.189270 6.948270 -47.313600 11.754300 -0.000000 0.000003 -0.050649 -0.300081 -28.938800 -2.192510 6.469440 -0.000001 -174.018000 17.944700 153.540000 -39.081100 -0.002282 -0.040193 -0.017747 0.025371 39.650200 -40.985400 0.000008 0.000006 8.630760 -1.037590 -67.352200 -11.754300 -0.000006 -0.000006 -0.013302 -0.126842 -21.745800
0.000000 0.000000 0.000000 0.000000 0.000000 -0.000000 -2.481560 87.361800 -507.532000 89.546300 -1.592270 0.649676 15.735700 0.000005 -0.000001 84.336800 82.471200 -83.910600 8.984550 -0.406207 -0.000000 7.225510 -1.482550 0.945090 16.377300 -0.000001 -0.000001 -1.689560 -1.323680 -0.143958 6.456720 -0.000001 -0.000000 -2.898210 0.073576 0.717903 12.994200 -0.242716 4.980390 -90.242700 1.015940 -76.563600 5.348090 -0.000007 -0.000001 -58.272300 21.242200 -28.104600 24.328600 0.000019 0.000005 5.042350 1.057310 -78.203600 22.291600 -0.000001 0.000005 18.315400 5.529240 -7.764900 12.994500 -0.242716 -4.980390 88.763400 9.145130 -82.265500 -5.348130 -0.000001 -0.000004 -54.557900 19.025200 -17.615500 -24.328900 0.000322 -0.000009 -23.761800 3.206040 -97.239200 -22.291500 -0.000108 -0.000004 26.606300 5.646510 -14.691700 -2.192480 -6.469440 -0.000000 -174.077000 -4.625410 -16.336300 39.081100 -0.000007 -0.000012 0.134944 -0.047269 70.693200 40.985400 -0.000006 -0.000013 -0.993392 6.325330 -43.078600 11.754300 -0.000000 0.000003 -0.002953 -0.040073 -18.206400 -2.192510 6.469440 -0.000001 -174.861000 12.107600 154.540000 -39.081100 -0.002282 -0.040193 0.074844 -0.067970 46.483600 -40.985400 0.000008 0.000006 9.713430 -6.201610 -71.103500 -11.754300 -0.000006 -0.000006 -0.005455 -0.065803 -19.250800
0.000000 0.000000 0.000000 0.000000 0.000000 -0.000000 -2.602360 86.207900 -504.331000 89.296700 -2.842950 1.275800 15.735700 0.000005 -0.000001 87.192300 82.157100 -86.507500 8.984550 -0.406207 -0.000000 7.906490 -0.764295 1.421000 16.377300 -0.000001 -0.000001 -1.870660 -0.984276 0.340165 6.456720 -0.000001 -0.000000 -3.184570 0.526625 -0.159458 12.994200 -0.242716 4.980390 -90.590700 2.473400 -76.564500 5.348090 -0.000007 -0.000001 -59.399100 23.712400 -17.786600 24.328600 0.000019 0.000005 6.481180 1.943760 -73.372300 22.291600 -0.000001 0.000005 18.169800 5.535360 -8.033620 12.994500 -0.242716 -4.980390 88.828100 9.516190 -82.946900 -5.348130 -0.000001 -0.000004 -49.652300 13.784200 -33.221000 -24.328900 0.000322 -0.000009 -23.303500 4.498910 -100.321000 -22.291500 -0.000108 -0.000004 28.183700 5.647240 -14.757100 -2.192480 -6.469440 -0.000000 -174.015000 -4.583280 -21.403300 39.081100 -0.000007 -0.000012 0.121967 -0.024143 78.799900 40.985400 -0.000006 -0.000013 1.154560 2.510250 -50.541100 11.754300 -0.000000 0.000003 -0.004383 -0.055373 -18.829400 -2.192510 6.469440 -0.000001 -175.122000 11.698300 155.515000 -39.081100 -0.002282 -0.040193 0.080095 -0.062928 50.687900 -40.985400 0.000008 0.000006 9.478350 -6.160790 -75.301100 -11.754300 -0.000006 -0.000006 -0.002815 -0.038491 -18.138400
